<mxfile host="65bd71144e">
    <diagram name="tree 1" id="jEVyggnTxn1rgLSGbQK1">
        <mxGraphModel dx="897" dy="789" grid="1" gridSize="10" guides="1" tooltips="1" connect="1" arrows="1" fold="1" page="1" pageScale="1" pageWidth="850" pageHeight="1100" math="0" shadow="0">
            <root>
                <mxCell id="0T-rgkAsOdNh1ewFOKfR-0"/>
                <mxCell id="0T-rgkAsOdNh1ewFOKfR-1" parent="0T-rgkAsOdNh1ewFOKfR-0"/>
                <mxCell id="0T-rgkAsOdNh1ewFOKfR-2" style="edgeStyle=none;html=1;exitX=1;exitY=0.5;exitDx=0;exitDy=0;entryX=0;entryY=0.5;entryDx=0;entryDy=0;fontSize=24;" edge="1" parent="0T-rgkAsOdNh1ewFOKfR-1" source="0T-rgkAsOdNh1ewFOKfR-4" target="0T-rgkAsOdNh1ewFOKfR-26">
                    <mxGeometry relative="1" as="geometry"/>
                </mxCell>
                <mxCell id="0T-rgkAsOdNh1ewFOKfR-3" style="edgeStyle=none;html=1;exitX=0.5;exitY=1;exitDx=0;exitDy=0;entryX=0.5;entryY=0;entryDx=0;entryDy=0;fontSize=24;" edge="1" parent="0T-rgkAsOdNh1ewFOKfR-1" source="0T-rgkAsOdNh1ewFOKfR-4" target="0T-rgkAsOdNh1ewFOKfR-7">
                    <mxGeometry relative="1" as="geometry"/>
                </mxCell>
                <mxCell id="0T-rgkAsOdNh1ewFOKfR-4" value="1,2,3,4" style="rounded=0;whiteSpace=wrap;html=1;fontSize=20;" vertex="1" parent="0T-rgkAsOdNh1ewFOKfR-1">
                    <mxGeometry width="470" height="60" as="geometry"/>
                </mxCell>
                <mxCell id="0T-rgkAsOdNh1ewFOKfR-5" style="edgeStyle=none;html=1;exitX=1;exitY=1;exitDx=0;exitDy=0;fontSize=20;" edge="1" parent="0T-rgkAsOdNh1ewFOKfR-1" source="0T-rgkAsOdNh1ewFOKfR-7" target="0T-rgkAsOdNh1ewFOKfR-11">
                    <mxGeometry relative="1" as="geometry"/>
                </mxCell>
                <mxCell id="0T-rgkAsOdNh1ewFOKfR-6" style="edgeStyle=none;html=1;exitX=0;exitY=1;exitDx=0;exitDy=0;entryX=1;entryY=0;entryDx=0;entryDy=0;fontSize=20;" edge="1" parent="0T-rgkAsOdNh1ewFOKfR-1" source="0T-rgkAsOdNh1ewFOKfR-7" target="0T-rgkAsOdNh1ewFOKfR-9">
                    <mxGeometry relative="1" as="geometry"/>
                </mxCell>
                <mxCell id="0T-rgkAsOdNh1ewFOKfR-7" value="2" style="ellipse;whiteSpace=wrap;html=1;aspect=fixed;fontSize=20;" vertex="1" parent="0T-rgkAsOdNh1ewFOKfR-1">
                    <mxGeometry x="205" y="100" width="60" height="60" as="geometry"/>
                </mxCell>
                <mxCell id="0T-rgkAsOdNh1ewFOKfR-9" value="1" style="ellipse;whiteSpace=wrap;html=1;aspect=fixed;fontSize=20;" vertex="1" parent="0T-rgkAsOdNh1ewFOKfR-1">
                    <mxGeometry x="145" y="160" width="60" height="60" as="geometry"/>
                </mxCell>
                <mxCell id="0T-rgkAsOdNh1ewFOKfR-10" style="edgeStyle=none;html=1;exitX=1;exitY=1;exitDx=0;exitDy=0;fontSize=20;" edge="1" parent="0T-rgkAsOdNh1ewFOKfR-1" source="0T-rgkAsOdNh1ewFOKfR-11" target="0T-rgkAsOdNh1ewFOKfR-12">
                    <mxGeometry relative="1" as="geometry"/>
                </mxCell>
                <mxCell id="0T-rgkAsOdNh1ewFOKfR-11" value="3" style="ellipse;whiteSpace=wrap;html=1;aspect=fixed;fontSize=20;" vertex="1" parent="0T-rgkAsOdNh1ewFOKfR-1">
                    <mxGeometry x="260" y="160" width="60" height="60" as="geometry"/>
                </mxCell>
                <mxCell id="0T-rgkAsOdNh1ewFOKfR-12" value="4" style="ellipse;whiteSpace=wrap;html=1;aspect=fixed;fontSize=20;" vertex="1" parent="0T-rgkAsOdNh1ewFOKfR-1">
                    <mxGeometry x="310" y="220" width="60" height="60" as="geometry"/>
                </mxCell>
                <mxCell id="0T-rgkAsOdNh1ewFOKfR-14" style="edgeStyle=none;html=1;exitX=0.75;exitY=1;exitDx=0;exitDy=0;entryX=0;entryY=0;entryDx=0;entryDy=0;fontSize=24;" edge="1" parent="0T-rgkAsOdNh1ewFOKfR-1" source="0T-rgkAsOdNh1ewFOKfR-15" target="0T-rgkAsOdNh1ewFOKfR-9">
                    <mxGeometry relative="1" as="geometry"/>
                </mxCell>
                <mxCell id="0T-rgkAsOdNh1ewFOKfR-15" value="1" style="rounded=0;whiteSpace=wrap;html=1;fontSize=20;" vertex="1" parent="0T-rgkAsOdNh1ewFOKfR-1">
                    <mxGeometry y="110" width="100" height="40" as="geometry"/>
                </mxCell>
                <mxCell id="0T-rgkAsOdNh1ewFOKfR-16" style="edgeStyle=none;html=1;exitX=0.25;exitY=1;exitDx=0;exitDy=0;entryX=1;entryY=0;entryDx=0;entryDy=0;fontSize=24;" edge="1" parent="0T-rgkAsOdNh1ewFOKfR-1" source="0T-rgkAsOdNh1ewFOKfR-17" target="0T-rgkAsOdNh1ewFOKfR-11">
                    <mxGeometry relative="1" as="geometry"/>
                </mxCell>
                <mxCell id="0T-rgkAsOdNh1ewFOKfR-17" value="3,4" style="rounded=0;whiteSpace=wrap;html=1;fontSize=20;" vertex="1" parent="0T-rgkAsOdNh1ewFOKfR-1">
                    <mxGeometry x="370" y="120" width="110" height="40" as="geometry"/>
                </mxCell>
                <mxCell id="0T-rgkAsOdNh1ewFOKfR-18" style="edgeStyle=none;html=1;exitX=1;exitY=1;exitDx=0;exitDy=0;fontSize=24;entryX=0;entryY=0;entryDx=0;entryDy=0;" edge="1" parent="0T-rgkAsOdNh1ewFOKfR-1" source="0T-rgkAsOdNh1ewFOKfR-20" target="0T-rgkAsOdNh1ewFOKfR-23">
                    <mxGeometry relative="1" as="geometry">
                        <mxPoint x="779.5767965644036" y="68.78679656440363" as="targetPoint"/>
                    </mxGeometry>
                </mxCell>
                <mxCell id="IvwLg6eC_nhseElT6EzQ-0" style="edgeStyle=none;html=1;exitX=0;exitY=1;exitDx=0;exitDy=0;entryX=1;entryY=0;entryDx=0;entryDy=0;fontSize=24;" edge="1" parent="0T-rgkAsOdNh1ewFOKfR-1" source="0T-rgkAsOdNh1ewFOKfR-20" target="0T-rgkAsOdNh1ewFOKfR-22">
                    <mxGeometry relative="1" as="geometry"/>
                </mxCell>
                <mxCell id="0T-rgkAsOdNh1ewFOKfR-20" value="3" style="ellipse;whiteSpace=wrap;html=1;aspect=fixed;fontSize=24;" vertex="1" parent="0T-rgkAsOdNh1ewFOKfR-1">
                    <mxGeometry x="710" width="60.79" height="60.79" as="geometry"/>
                </mxCell>
                <mxCell id="0T-rgkAsOdNh1ewFOKfR-22" value="1" style="ellipse;whiteSpace=wrap;html=1;aspect=fixed;fontSize=24;" vertex="1" parent="0T-rgkAsOdNh1ewFOKfR-1">
                    <mxGeometry x="650" y="50" width="60" height="60" as="geometry"/>
                </mxCell>
                <mxCell id="0T-rgkAsOdNh1ewFOKfR-23" value="4" style="ellipse;whiteSpace=wrap;html=1;aspect=fixed;fontSize=24;" vertex="1" parent="0T-rgkAsOdNh1ewFOKfR-1">
                    <mxGeometry x="770.79" y="50" width="60" height="60" as="geometry"/>
                </mxCell>
                <mxCell id="0T-rgkAsOdNh1ewFOKfR-25" style="edgeStyle=none;html=1;exitX=1;exitY=0.5;exitDx=0;exitDy=0;entryX=0;entryY=0.5;entryDx=0;entryDy=0;fontSize=24;" edge="1" parent="0T-rgkAsOdNh1ewFOKfR-1" source="0T-rgkAsOdNh1ewFOKfR-26" target="0T-rgkAsOdNh1ewFOKfR-20">
                    <mxGeometry relative="1" as="geometry"/>
                </mxCell>
                <mxCell id="0T-rgkAsOdNh1ewFOKfR-26" value="delete(2)" style="rounded=0;whiteSpace=wrap;html=1;fontSize=24;" vertex="1" parent="0T-rgkAsOdNh1ewFOKfR-1">
                    <mxGeometry x="520" y="10" width="120" height="40" as="geometry"/>
                </mxCell>
            </root>
        </mxGraphModel>
    </diagram>
    <diagram name="tree 2" id="RT_RM978pE7EGQCnZqtJ">
        <mxGraphModel dx="557" dy="789" grid="1" gridSize="10" guides="1" tooltips="1" connect="1" arrows="1" fold="1" page="1" pageScale="1" pageWidth="850" pageHeight="1100" math="0" shadow="0">
            <root>
                <mxCell id="l2u5Uhh2aOUAbaelWE37-0"/>
                <mxCell id="l2u5Uhh2aOUAbaelWE37-1" parent="l2u5Uhh2aOUAbaelWE37-0"/>
                <mxCell id="l2u5Uhh2aOUAbaelWE37-5" style="edgeStyle=none;html=1;exitX=1;exitY=1;exitDx=0;exitDy=0;fontSize=20;strokeColor=#F0F0F0;" edge="1" parent="l2u5Uhh2aOUAbaelWE37-1" source="l2u5Uhh2aOUAbaelWE37-7" target="l2u5Uhh2aOUAbaelWE37-10">
                    <mxGeometry relative="1" as="geometry"/>
                </mxCell>
                <mxCell id="l2u5Uhh2aOUAbaelWE37-6" style="edgeStyle=none;html=1;exitX=0;exitY=1;exitDx=0;exitDy=0;entryX=1;entryY=0;entryDx=0;entryDy=0;fontSize=20;strokeColor=#F0F0F0;" edge="1" parent="l2u5Uhh2aOUAbaelWE37-1" source="l2u5Uhh2aOUAbaelWE37-7" target="l2u5Uhh2aOUAbaelWE37-8">
                    <mxGeometry relative="1" as="geometry"/>
                </mxCell>
                <mxCell id="QwafeXrT7rS3cgi9Lopm-8" style="edgeStyle=none;html=1;exitX=1;exitY=0;exitDx=0;exitDy=0;entryX=0;entryY=0.5;entryDx=0;entryDy=0;fontSize=24;strokeColor=#F0F0F0;" edge="1" parent="l2u5Uhh2aOUAbaelWE37-1" source="l2u5Uhh2aOUAbaelWE37-7" target="l2u5Uhh2aOUAbaelWE37-22">
                    <mxGeometry relative="1" as="geometry"/>
                </mxCell>
                <mxCell id="l2u5Uhh2aOUAbaelWE37-7" value="5" style="ellipse;whiteSpace=wrap;html=1;aspect=fixed;fontSize=20;strokeColor=#F0F0F0;" vertex="1" parent="l2u5Uhh2aOUAbaelWE37-1">
                    <mxGeometry x="208" y="20" width="60" height="60" as="geometry"/>
                </mxCell>
                <mxCell id="MKz47Ek3FvvFFs-4N3e4-1" style="edgeStyle=none;html=1;exitX=0;exitY=1;exitDx=0;exitDy=0;entryX=1;entryY=0;entryDx=0;entryDy=0;fontSize=24;strokeColor=#F0F0F0;" edge="1" parent="l2u5Uhh2aOUAbaelWE37-1" source="l2u5Uhh2aOUAbaelWE37-8" target="MKz47Ek3FvvFFs-4N3e4-0">
                    <mxGeometry relative="1" as="geometry"/>
                </mxCell>
                <mxCell id="MKz47Ek3FvvFFs-4N3e4-3" style="edgeStyle=none;html=1;exitX=1;exitY=1;exitDx=0;exitDy=0;entryX=0;entryY=0;entryDx=0;entryDy=0;fontSize=24;strokeColor=#F0F0F0;" edge="1" parent="l2u5Uhh2aOUAbaelWE37-1" source="l2u5Uhh2aOUAbaelWE37-8" target="MKz47Ek3FvvFFs-4N3e4-2">
                    <mxGeometry relative="1" as="geometry"/>
                </mxCell>
                <mxCell id="l2u5Uhh2aOUAbaelWE37-8" value="3" style="ellipse;whiteSpace=wrap;html=1;aspect=fixed;fontSize=20;strokeColor=#F0F0F0;" vertex="1" parent="l2u5Uhh2aOUAbaelWE37-1">
                    <mxGeometry x="131" y="70" width="60" height="60" as="geometry"/>
                </mxCell>
                <mxCell id="l2u5Uhh2aOUAbaelWE37-9" style="edgeStyle=none;html=1;exitX=1;exitY=1;exitDx=0;exitDy=0;fontSize=20;strokeColor=#F0F0F0;" edge="1" parent="l2u5Uhh2aOUAbaelWE37-1" source="l2u5Uhh2aOUAbaelWE37-10" target="l2u5Uhh2aOUAbaelWE37-11">
                    <mxGeometry relative="1" as="geometry"/>
                </mxCell>
                <mxCell id="MKz47Ek3FvvFFs-4N3e4-7" style="edgeStyle=none;html=1;exitX=0;exitY=1;exitDx=0;exitDy=0;entryX=1;entryY=0;entryDx=0;entryDy=0;fontSize=24;strokeColor=#F0F0F0;" edge="1" parent="l2u5Uhh2aOUAbaelWE37-1" source="l2u5Uhh2aOUAbaelWE37-10" target="MKz47Ek3FvvFFs-4N3e4-6">
                    <mxGeometry relative="1" as="geometry"/>
                </mxCell>
                <mxCell id="l2u5Uhh2aOUAbaelWE37-10" value="7" style="ellipse;whiteSpace=wrap;html=1;aspect=fixed;fontSize=20;strokeColor=#F0F0F0;" vertex="1" parent="l2u5Uhh2aOUAbaelWE37-1">
                    <mxGeometry x="331" y="60" width="60" height="60" as="geometry"/>
                </mxCell>
                <mxCell id="l2u5Uhh2aOUAbaelWE37-11" value="8" style="ellipse;whiteSpace=wrap;html=1;aspect=fixed;fontSize=20;strokeColor=#F0F0F0;" vertex="1" parent="l2u5Uhh2aOUAbaelWE37-1">
                    <mxGeometry x="380" y="120" width="60" height="60" as="geometry"/>
                </mxCell>
                <mxCell id="l2u5Uhh2aOUAbaelWE37-16" style="edgeStyle=none;html=1;exitX=1;exitY=1;exitDx=0;exitDy=0;fontSize=24;entryX=0;entryY=0;entryDx=0;entryDy=0;strokeColor=#F0F0F0;" edge="1" parent="l2u5Uhh2aOUAbaelWE37-1" source="l2u5Uhh2aOUAbaelWE37-18" target="l2u5Uhh2aOUAbaelWE37-20">
                    <mxGeometry relative="1" as="geometry">
                        <mxPoint x="739.5767965644036" y="148.78679656440363" as="targetPoint"/>
                    </mxGeometry>
                </mxCell>
                <mxCell id="l2u5Uhh2aOUAbaelWE37-17" style="edgeStyle=none;html=1;exitX=0;exitY=1;exitDx=0;exitDy=0;entryX=1;entryY=0;entryDx=0;entryDy=0;fontSize=24;strokeColor=#F0F0F0;" edge="1" parent="l2u5Uhh2aOUAbaelWE37-1" source="l2u5Uhh2aOUAbaelWE37-18" target="MKz47Ek3FvvFFs-4N3e4-13">
                    <mxGeometry relative="1" as="geometry">
                        <mxPoint x="671.2132034355964" y="108.78679656440363" as="targetPoint"/>
                    </mxGeometry>
                </mxCell>
                <mxCell id="l2u5Uhh2aOUAbaelWE37-18" value="6" style="ellipse;whiteSpace=wrap;html=1;aspect=fixed;fontSize=24;strokeColor=#F0F0F0;" vertex="1" parent="l2u5Uhh2aOUAbaelWE37-1">
                    <mxGeometry x="660" y="30" width="60.79" height="60.79" as="geometry"/>
                </mxCell>
                <mxCell id="MKz47Ek3FvvFFs-4N3e4-9" style="edgeStyle=none;html=1;exitX=1;exitY=1;exitDx=0;exitDy=0;entryX=0;entryY=0;entryDx=0;entryDy=0;fontSize=24;strokeColor=#F0F0F0;" edge="1" parent="l2u5Uhh2aOUAbaelWE37-1" source="l2u5Uhh2aOUAbaelWE37-20" target="MKz47Ek3FvvFFs-4N3e4-8">
                    <mxGeometry relative="1" as="geometry"/>
                </mxCell>
                <mxCell id="l2u5Uhh2aOUAbaelWE37-20" value="7" style="ellipse;whiteSpace=wrap;html=1;aspect=fixed;fontSize=24;strokeColor=#F0F0F0;" vertex="1" parent="l2u5Uhh2aOUAbaelWE37-1">
                    <mxGeometry x="740" y="90.78999999999999" width="60" height="60" as="geometry"/>
                </mxCell>
                <mxCell id="l2u5Uhh2aOUAbaelWE37-21" style="edgeStyle=none;html=1;exitX=1;exitY=0.5;exitDx=0;exitDy=0;entryX=0;entryY=0.5;entryDx=0;entryDy=0;fontSize=24;strokeColor=#F0F0F0;" edge="1" parent="l2u5Uhh2aOUAbaelWE37-1" source="l2u5Uhh2aOUAbaelWE37-22" target="l2u5Uhh2aOUAbaelWE37-18">
                    <mxGeometry relative="1" as="geometry"/>
                </mxCell>
                <mxCell id="l2u5Uhh2aOUAbaelWE37-22" value="delete(5)" style="rounded=0;whiteSpace=wrap;html=1;fontSize=24;strokeColor=#F0F0F0;" vertex="1" parent="l2u5Uhh2aOUAbaelWE37-1">
                    <mxGeometry x="423" y="10" width="120" height="40" as="geometry"/>
                </mxCell>
                <mxCell id="MKz47Ek3FvvFFs-4N3e4-0" value="2" style="ellipse;whiteSpace=wrap;html=1;aspect=fixed;fontSize=20;strokeColor=#F0F0F0;" vertex="1" parent="l2u5Uhh2aOUAbaelWE37-1">
                    <mxGeometry x="70" y="140" width="60" height="60" as="geometry"/>
                </mxCell>
                <mxCell id="MKz47Ek3FvvFFs-4N3e4-2" value="4" style="ellipse;whiteSpace=wrap;html=1;aspect=fixed;fontSize=20;strokeColor=#F0F0F0;" vertex="1" parent="l2u5Uhh2aOUAbaelWE37-1">
                    <mxGeometry x="192" y="140" width="60" height="60" as="geometry"/>
                </mxCell>
                <mxCell id="MKz47Ek3FvvFFs-4N3e4-6" value="6" style="ellipse;whiteSpace=wrap;html=1;aspect=fixed;fontSize=20;strokeColor=#F0F0F0;" vertex="1" parent="l2u5Uhh2aOUAbaelWE37-1">
                    <mxGeometry x="271" y="115" width="60" height="60" as="geometry"/>
                </mxCell>
                <mxCell id="MKz47Ek3FvvFFs-4N3e4-8" value="8" style="ellipse;whiteSpace=wrap;html=1;aspect=fixed;fontSize=24;strokeColor=#F0F0F0;" vertex="1" parent="l2u5Uhh2aOUAbaelWE37-1">
                    <mxGeometry x="800" y="150.79" width="60" height="60" as="geometry"/>
                </mxCell>
                <mxCell id="MKz47Ek3FvvFFs-4N3e4-11" style="edgeStyle=none;html=1;exitX=0;exitY=1;exitDx=0;exitDy=0;entryX=1;entryY=0;entryDx=0;entryDy=0;fontSize=24;strokeColor=#F0F0F0;" edge="1" parent="l2u5Uhh2aOUAbaelWE37-1" source="MKz47Ek3FvvFFs-4N3e4-13" target="MKz47Ek3FvvFFs-4N3e4-14">
                    <mxGeometry relative="1" as="geometry"/>
                </mxCell>
                <mxCell id="MKz47Ek3FvvFFs-4N3e4-12" style="edgeStyle=none;html=1;exitX=1;exitY=1;exitDx=0;exitDy=0;entryX=0;entryY=0;entryDx=0;entryDy=0;fontSize=24;strokeColor=#F0F0F0;" edge="1" parent="l2u5Uhh2aOUAbaelWE37-1" source="MKz47Ek3FvvFFs-4N3e4-13" target="MKz47Ek3FvvFFs-4N3e4-15">
                    <mxGeometry relative="1" as="geometry"/>
                </mxCell>
                <mxCell id="MKz47Ek3FvvFFs-4N3e4-13" value="3" style="ellipse;whiteSpace=wrap;html=1;aspect=fixed;fontSize=20;strokeColor=#F0F0F0;" vertex="1" parent="l2u5Uhh2aOUAbaelWE37-1">
                    <mxGeometry x="590" y="90.78999999999999" width="60" height="60" as="geometry"/>
                </mxCell>
                <mxCell id="MKz47Ek3FvvFFs-4N3e4-14" value="2" style="ellipse;whiteSpace=wrap;html=1;aspect=fixed;fontSize=20;strokeColor=#F0F0F0;" vertex="1" parent="l2u5Uhh2aOUAbaelWE37-1">
                    <mxGeometry x="514" y="165" width="60" height="60" as="geometry"/>
                </mxCell>
                <mxCell id="MKz47Ek3FvvFFs-4N3e4-15" value="4" style="ellipse;whiteSpace=wrap;html=1;aspect=fixed;fontSize=20;strokeColor=#F0F0F0;" vertex="1" parent="l2u5Uhh2aOUAbaelWE37-1">
                    <mxGeometry x="637" y="165" width="60" height="60" as="geometry"/>
                </mxCell>
                <mxCell id="QwafeXrT7rS3cgi9Lopm-9" style="edgeStyle=none;html=1;exitX=0;exitY=0.5;exitDx=0;exitDy=0;entryX=1;entryY=0;entryDx=0;entryDy=0;fontSize=24;fontColor=#000000;strokeColor=#F0F0F0;" edge="1" parent="l2u5Uhh2aOUAbaelWE37-1" source="XvnLOIZOg9or3GNbHBRW-2" target="XvnLOIZOg9or3GNbHBRW-5">
                    <mxGeometry relative="1" as="geometry"/>
                </mxCell>
                <mxCell id="QwafeXrT7rS3cgi9Lopm-10" style="edgeStyle=none;html=1;exitX=1;exitY=0.5;exitDx=0;exitDy=0;entryX=0;entryY=0.5;entryDx=0;entryDy=0;fontSize=24;fontColor=#000000;strokeColor=#F0F0F0;" edge="1" parent="l2u5Uhh2aOUAbaelWE37-1" source="XvnLOIZOg9or3GNbHBRW-2" target="QwafeXrT7rS3cgi9Lopm-1">
                    <mxGeometry relative="1" as="geometry"/>
                </mxCell>
                <mxCell id="XvnLOIZOg9or3GNbHBRW-2" value="8" style="ellipse;whiteSpace=wrap;html=1;aspect=fixed;fontSize=20;" vertex="1" parent="l2u5Uhh2aOUAbaelWE37-1">
                    <mxGeometry x="205" y="310" width="60" height="60" as="geometry"/>
                </mxCell>
                <mxCell id="XvnLOIZOg9or3GNbHBRW-3" style="edgeStyle=none;html=1;exitX=0;exitY=1;exitDx=0;exitDy=0;entryX=1;entryY=0;entryDx=0;entryDy=0;fontSize=24;" edge="1" parent="l2u5Uhh2aOUAbaelWE37-1" source="XvnLOIZOg9or3GNbHBRW-5" target="XvnLOIZOg9or3GNbHBRW-10">
                    <mxGeometry relative="1" as="geometry"/>
                </mxCell>
                <mxCell id="XvnLOIZOg9or3GNbHBRW-4" style="edgeStyle=none;html=1;exitX=1;exitY=1;exitDx=0;exitDy=0;entryX=0;entryY=0;entryDx=0;entryDy=0;fontSize=24;" edge="1" parent="l2u5Uhh2aOUAbaelWE37-1" source="XvnLOIZOg9or3GNbHBRW-5" target="XvnLOIZOg9or3GNbHBRW-11">
                    <mxGeometry relative="1" as="geometry"/>
                </mxCell>
                <mxCell id="XvnLOIZOg9or3GNbHBRW-5" value="3" style="ellipse;whiteSpace=wrap;html=1;aspect=fixed;fontSize=20;" vertex="1" parent="l2u5Uhh2aOUAbaelWE37-1">
                    <mxGeometry x="126.21000000000001" y="370" width="60" height="60" as="geometry"/>
                </mxCell>
                <mxCell id="XvnLOIZOg9or3GNbHBRW-10" value="2" style="ellipse;whiteSpace=wrap;html=1;aspect=fixed;fontSize=20;" vertex="1" parent="l2u5Uhh2aOUAbaelWE37-1">
                    <mxGeometry x="66.21000000000001" y="430" width="60" height="60" as="geometry"/>
                </mxCell>
                <mxCell id="XvnLOIZOg9or3GNbHBRW-11" value="4" style="ellipse;whiteSpace=wrap;html=1;aspect=fixed;fontSize=20;" vertex="1" parent="l2u5Uhh2aOUAbaelWE37-1">
                    <mxGeometry x="201.21" y="430" width="60" height="60" as="geometry"/>
                </mxCell>
                <mxCell id="QwafeXrT7rS3cgi9Lopm-11" style="edgeStyle=none;html=1;exitX=1;exitY=0.5;exitDx=0;exitDy=0;entryX=-0.004;entryY=0.357;entryDx=0;entryDy=0;entryPerimeter=0;fontSize=24;fontColor=#000000;strokeColor=#F0F0F0;" edge="1" parent="l2u5Uhh2aOUAbaelWE37-1" source="QwafeXrT7rS3cgi9Lopm-1" target="QwafeXrT7rS3cgi9Lopm-5">
                    <mxGeometry relative="1" as="geometry"/>
                </mxCell>
                <mxCell id="QwafeXrT7rS3cgi9Lopm-1" value="delete(8)" style="rounded=0;whiteSpace=wrap;html=1;fontSize=24;fontStyle=1" vertex="1" parent="l2u5Uhh2aOUAbaelWE37-1">
                    <mxGeometry x="310" y="320" width="120" height="40" as="geometry"/>
                </mxCell>
                <mxCell id="QwafeXrT7rS3cgi9Lopm-3" style="edgeStyle=none;html=1;exitX=0;exitY=1;exitDx=0;exitDy=0;entryX=1;entryY=0;entryDx=0;entryDy=0;fontSize=24;" edge="1" parent="l2u5Uhh2aOUAbaelWE37-1" source="QwafeXrT7rS3cgi9Lopm-5" target="QwafeXrT7rS3cgi9Lopm-6">
                    <mxGeometry relative="1" as="geometry"/>
                </mxCell>
                <mxCell id="QwafeXrT7rS3cgi9Lopm-4" style="edgeStyle=none;html=1;exitX=1;exitY=1;exitDx=0;exitDy=0;entryX=0;entryY=0;entryDx=0;entryDy=0;fontSize=24;" edge="1" parent="l2u5Uhh2aOUAbaelWE37-1" source="QwafeXrT7rS3cgi9Lopm-5" target="QwafeXrT7rS3cgi9Lopm-7">
                    <mxGeometry relative="1" as="geometry"/>
                </mxCell>
                <mxCell id="QwafeXrT7rS3cgi9Lopm-5" value="3" style="ellipse;whiteSpace=wrap;html=1;aspect=fixed;fontSize=20;" vertex="1" parent="l2u5Uhh2aOUAbaelWE37-1">
                    <mxGeometry x="500.00000000000006" y="340" width="60" height="60" as="geometry"/>
                </mxCell>
                <mxCell id="QwafeXrT7rS3cgi9Lopm-6" value="2" style="ellipse;whiteSpace=wrap;html=1;aspect=fixed;fontSize=20;" vertex="1" parent="l2u5Uhh2aOUAbaelWE37-1">
                    <mxGeometry x="440" y="400" width="60" height="60" as="geometry"/>
                </mxCell>
                <mxCell id="QwafeXrT7rS3cgi9Lopm-7" value="4" style="ellipse;whiteSpace=wrap;html=1;aspect=fixed;fontSize=20;" vertex="1" parent="l2u5Uhh2aOUAbaelWE37-1">
                    <mxGeometry x="560" y="400" width="60" height="60" as="geometry"/>
                </mxCell>
            </root>
        </mxGraphModel>
    </diagram>
    <diagram id="lXkwyaWU83_bPbCjW0Jq" name="tree 3">
        <mxGraphModel dx="897" dy="789" grid="1" gridSize="10" guides="1" tooltips="1" connect="1" arrows="1" fold="1" page="1" pageScale="1" pageWidth="850" pageHeight="1100" math="0" shadow="0">
            <root>
                <mxCell id="0"/>
                <mxCell id="1" parent="0"/>
                <mxCell id="Key7bC_hjKQmsKl8brcR-19" style="edgeStyle=none;html=1;exitX=1;exitY=0.5;exitDx=0;exitDy=0;entryX=0;entryY=0.5;entryDx=0;entryDy=0;fontSize=24;" edge="1" parent="1" source="3" target="PAPBc1QIHk4CQUbuBitp-28">
                    <mxGeometry relative="1" as="geometry"/>
                </mxCell>
                <mxCell id="Key7bC_hjKQmsKl8brcR-23" style="edgeStyle=none;html=1;exitX=0.5;exitY=1;exitDx=0;exitDy=0;entryX=0.5;entryY=0;entryDx=0;entryDy=0;fontSize=24;" edge="1" parent="1" source="3" target="4">
                    <mxGeometry relative="1" as="geometry"/>
                </mxCell>
                <mxCell id="3" value="1,2,3,4,5" style="rounded=0;whiteSpace=wrap;html=1;fontSize=20;" vertex="1" parent="1">
                    <mxGeometry width="470" height="60" as="geometry"/>
                </mxCell>
                <mxCell id="10" style="edgeStyle=none;html=1;exitX=1;exitY=1;exitDx=0;exitDy=0;fontSize=20;" edge="1" parent="1" source="4" target="8">
                    <mxGeometry relative="1" as="geometry"/>
                </mxCell>
                <mxCell id="11" style="edgeStyle=none;html=1;exitX=0;exitY=1;exitDx=0;exitDy=0;entryX=1;entryY=0;entryDx=0;entryDy=0;fontSize=20;" edge="1" parent="1" source="4" target="6">
                    <mxGeometry relative="1" as="geometry"/>
                </mxCell>
                <mxCell id="4" value="3" style="ellipse;whiteSpace=wrap;html=1;aspect=fixed;fontSize=20;" vertex="1" parent="1">
                    <mxGeometry x="205" y="100" width="60" height="60" as="geometry"/>
                </mxCell>
                <mxCell id="9oRvAlv7V0cLsEQV2-Dh-18" style="edgeStyle=none;html=1;exitX=1;exitY=1;exitDx=0;exitDy=0;entryX=0;entryY=0;entryDx=0;entryDy=0;fontSize=24;" edge="1" parent="1" source="6" target="14">
                    <mxGeometry relative="1" as="geometry"/>
                </mxCell>
                <mxCell id="6" value="1" style="ellipse;whiteSpace=wrap;html=1;aspect=fixed;fontSize=20;" vertex="1" parent="1">
                    <mxGeometry x="145" y="160" width="60" height="60" as="geometry"/>
                </mxCell>
                <mxCell id="12" style="edgeStyle=none;html=1;exitX=1;exitY=1;exitDx=0;exitDy=0;fontSize=20;" edge="1" parent="1" source="8" target="9">
                    <mxGeometry relative="1" as="geometry"/>
                </mxCell>
                <mxCell id="8" value="4" style="ellipse;whiteSpace=wrap;html=1;aspect=fixed;fontSize=20;" vertex="1" parent="1">
                    <mxGeometry x="260" y="160" width="60" height="60" as="geometry"/>
                </mxCell>
                <mxCell id="9" value="5" style="ellipse;whiteSpace=wrap;html=1;aspect=fixed;fontSize=20;" vertex="1" parent="1">
                    <mxGeometry x="310" y="220" width="60" height="60" as="geometry"/>
                </mxCell>
                <mxCell id="14" value="2" style="ellipse;whiteSpace=wrap;html=1;aspect=fixed;fontSize=20;" vertex="1" parent="1">
                    <mxGeometry x="200" y="230" width="60" height="60" as="geometry"/>
                </mxCell>
                <mxCell id="9ywwrfBsEtmjXUYACzou-19" style="edgeStyle=none;html=1;exitX=0.75;exitY=1;exitDx=0;exitDy=0;entryX=0;entryY=0;entryDx=0;entryDy=0;fontSize=24;" edge="1" parent="1" source="17" target="6">
                    <mxGeometry relative="1" as="geometry"/>
                </mxCell>
                <mxCell id="17" value="1,2" style="rounded=0;whiteSpace=wrap;html=1;fontSize=20;" vertex="1" parent="1">
                    <mxGeometry y="110" width="100" height="40" as="geometry"/>
                </mxCell>
                <mxCell id="9ywwrfBsEtmjXUYACzou-20" style="edgeStyle=none;html=1;exitX=0.25;exitY=1;exitDx=0;exitDy=0;entryX=1;entryY=0;entryDx=0;entryDy=0;fontSize=24;" edge="1" parent="1" source="18" target="8">
                    <mxGeometry relative="1" as="geometry"/>
                </mxCell>
                <mxCell id="18" value="4,5" style="rounded=0;whiteSpace=wrap;html=1;fontSize=20;" vertex="1" parent="1">
                    <mxGeometry x="370" y="120" width="110" height="40" as="geometry"/>
                </mxCell>
                <mxCell id="PAPBc1QIHk4CQUbuBitp-19" style="edgeStyle=none;html=1;exitX=1;exitY=1;exitDx=0;exitDy=0;fontSize=24;" edge="1" source="PAPBc1QIHk4CQUbuBitp-21" parent="1">
                    <mxGeometry relative="1" as="geometry">
                        <mxPoint x="819.5767965644036" y="68.78679656440363" as="targetPoint"/>
                    </mxGeometry>
                </mxCell>
                <mxCell id="PAPBc1QIHk4CQUbuBitp-20" style="edgeStyle=none;html=1;exitX=0;exitY=1;exitDx=0;exitDy=0;entryX=1;entryY=0;entryDx=0;entryDy=0;fontSize=24;" edge="1" source="PAPBc1QIHk4CQUbuBitp-21" parent="1">
                    <mxGeometry relative="1" as="geometry">
                        <mxPoint x="732.0032034355963" y="78.78679656440363" as="targetPoint"/>
                    </mxGeometry>
                </mxCell>
                <mxCell id="PAPBc1QIHk4CQUbuBitp-21" value="4" style="ellipse;whiteSpace=wrap;html=1;aspect=fixed;fontSize=24;" vertex="1" parent="1">
                    <mxGeometry x="750" width="60.79" height="60.79" as="geometry"/>
                </mxCell>
                <mxCell id="PAPBc1QIHk4CQUbuBitp-22" style="edgeStyle=none;html=1;exitX=1;exitY=1;exitDx=0;exitDy=0;entryX=0;entryY=0;entryDx=0;entryDy=0;fontSize=24;" edge="1" target="PAPBc1QIHk4CQUbuBitp-25" parent="1">
                    <mxGeometry relative="1" as="geometry">
                        <mxPoint x="732.0032034355963" y="121.21320343559637" as="sourcePoint"/>
                    </mxGeometry>
                </mxCell>
                <mxCell id="PAPBc1QIHk4CQUbuBitp-23" value="1" style="ellipse;whiteSpace=wrap;html=1;aspect=fixed;fontSize=24;" vertex="1" parent="1">
                    <mxGeometry x="690" y="70" width="60" height="60" as="geometry"/>
                </mxCell>
                <mxCell id="PAPBc1QIHk4CQUbuBitp-24" value="5&lt;br style=&quot;font-size: 24px;&quot;&gt;" style="ellipse;whiteSpace=wrap;html=1;aspect=fixed;fontSize=24;" vertex="1" parent="1">
                    <mxGeometry x="820" y="60" width="60" height="60" as="geometry"/>
                </mxCell>
                <mxCell id="PAPBc1QIHk4CQUbuBitp-25" value="2&lt;br style=&quot;font-size: 24px;&quot;&gt;" style="ellipse;whiteSpace=wrap;html=1;aspect=fixed;fontSize=24;" vertex="1" parent="1">
                    <mxGeometry x="740.79" y="130" width="60" height="60" as="geometry"/>
                </mxCell>
                <mxCell id="Key7bC_hjKQmsKl8brcR-20" style="edgeStyle=none;html=1;exitX=1;exitY=0.5;exitDx=0;exitDy=0;entryX=0;entryY=0.5;entryDx=0;entryDy=0;fontSize=24;" edge="1" parent="1" source="PAPBc1QIHk4CQUbuBitp-28" target="PAPBc1QIHk4CQUbuBitp-21">
                    <mxGeometry relative="1" as="geometry"/>
                </mxCell>
                <mxCell id="PAPBc1QIHk4CQUbuBitp-28" value="delete(3)" style="rounded=0;whiteSpace=wrap;html=1;fontSize=24;" vertex="1" parent="1">
                    <mxGeometry x="570" y="10" width="120" height="40" as="geometry"/>
                </mxCell>
            </root>
        </mxGraphModel>
    </diagram>
</mxfile>